<svg xmlns="http://www.w3.org/2000/svg" xmlns:xlink="http://www.w3.org/1999/xlink" width="367" height="211" viewBox="0 0 367 211"><defs><style>.a{fill:#fff;stroke:#707070;}.b,.d,.e{opacity:0.5;}.b{clip-path:url(#a);}.c{fill:#ffe486;}.d{clip-path:url(#b);}.e{fill:url(#c);}</style><clipPath id="a"><circle class="a" cx="40" cy="40" r="40" transform="translate(261 37)"/></clipPath><clipPath id="b"><circle class="a" cx="23" cy="23" r="23" transform="translate(261 37)"/></clipPath><linearGradient id="c" x1="0.938" y1="0.853" x2="-0.121" y2="0.238" gradientUnits="objectBoundingBox"><stop offset="0" stop-color="#fbeab1"/><stop offset="0" stop-color="#fbebb3"/><stop offset="1" stop-color="#fff"/><stop offset="1" stop-color="#fffdf8"/><stop offset="1"/></linearGradient></defs><g transform="translate(31 -16)"><g class="b" transform="translate(-5 -19)"><g transform="translate(257.279 25.837)"><circle class="c" cx="1.86" cy="1.86" r="1.86"/><circle class="c" cx="1.86" cy="1.86" r="1.86" transform="translate(0 55.814)"/><circle class="c" cx="1.86" cy="1.86" r="1.86" transform="translate(44.651)"/><circle class="c" cx="1.86" cy="1.86" r="1.86" transform="translate(44.651 55.814)"/><circle class="c" cx="1.86" cy="1.86" r="1.86" transform="translate(0 27.907)"/><circle class="c" cx="1.86" cy="1.86" r="1.86" transform="translate(0 83.721)"/><circle class="c" cx="1.86" cy="1.86" r="1.86" transform="translate(44.651 27.907)"/><circle class="c" cx="1.86" cy="1.86" r="1.86" transform="translate(44.651 83.721)"/><circle class="c" cx="1.86" cy="1.86" r="1.86" transform="translate(0 5.581)"/><circle class="c" cx="1.86" cy="1.86" r="1.86" transform="translate(0 61.395)"/><circle class="c" cx="1.86" cy="1.86" r="1.86" transform="translate(44.651 5.581)"/><circle class="c" cx="1.86" cy="1.86" r="1.86" transform="translate(44.651 61.395)"/><circle class="c" cx="1.86" cy="1.86" r="1.86" transform="translate(0 33.488)"/><circle class="c" cx="1.86" cy="1.86" r="1.86" transform="translate(0 89.302)"/><circle class="c" cx="1.86" cy="1.86" r="1.86" transform="translate(44.651 33.488)"/><circle class="c" cx="1.86" cy="1.86" r="1.86" transform="translate(44.651 89.302)"/><circle class="c" cx="1.86" cy="1.86" r="1.86" transform="translate(0 11.163)"/><circle class="c" cx="1.86" cy="1.86" r="1.86" transform="translate(0 66.977)"/><circle class="c" cx="1.86" cy="1.86" r="1.86" transform="translate(44.651 11.163)"/><circle class="c" cx="1.86" cy="1.86" r="1.86" transform="translate(44.651 66.977)"/><circle class="c" cx="1.86" cy="1.86" r="1.86" transform="translate(0 39.07)"/><circle class="c" cx="1.86" cy="1.86" r="1.86" transform="translate(0 94.884)"/><circle class="c" cx="1.86" cy="1.86" r="1.86" transform="translate(44.651 39.07)"/><circle class="c" cx="1.86" cy="1.86" r="1.86" transform="translate(44.651 94.884)"/><circle class="c" cx="1.86" cy="1.86" r="1.86" transform="translate(0 16.744)"/><circle class="c" cx="1.86" cy="1.86" r="1.86" transform="translate(0 72.558)"/><circle class="c" cx="1.86" cy="1.86" r="1.86" transform="translate(44.651 16.744)"/><circle class="c" cx="1.86" cy="1.86" r="1.86" transform="translate(44.651 72.558)"/><circle class="c" cx="1.86" cy="1.86" r="1.86" transform="translate(0 44.651)"/><circle class="c" cx="1.86" cy="1.86" r="1.86" transform="translate(0 100.465)"/><circle class="c" cx="1.86" cy="1.86" r="1.86" transform="translate(44.651 44.651)"/><circle class="c" cx="1.86" cy="1.86" r="1.86" transform="translate(44.651 100.465)"/><circle class="c" cx="1.86" cy="1.86" r="1.86" transform="translate(0 22.326)"/><circle class="c" cx="1.86" cy="1.86" r="1.86" transform="translate(0 78.14)"/><circle class="c" cx="1.86" cy="1.86" r="1.86" transform="translate(44.651 22.326)"/><circle class="c" cx="1.86" cy="1.86" r="1.86" transform="translate(44.651 78.14)"/><circle class="c" cx="1.86" cy="1.86" r="1.86" transform="translate(0 50.233)"/><circle class="c" cx="1.86" cy="1.86" r="1.86" transform="translate(0 106.047)"/><circle class="c" cx="1.86" cy="1.86" r="1.86" transform="translate(44.651 50.233)"/><circle class="c" cx="1.86" cy="1.86" r="1.86" transform="translate(44.651 106.047)"/><circle class="c" cx="1.86" cy="1.86" r="1.86" transform="translate(22.326)"/><circle class="c" cx="1.86" cy="1.86" r="1.86" transform="translate(22.326 55.814)"/><circle class="c" cx="1.86" cy="1.86" r="1.86" transform="translate(66.977)"/><circle class="c" cx="1.86" cy="1.86" r="1.86" transform="translate(66.977 55.814)"/><circle class="c" cx="1.86" cy="1.86" r="1.86" transform="translate(22.326 27.907)"/><circle class="c" cx="1.86" cy="1.86" r="1.86" transform="translate(22.326 83.721)"/><circle class="c" cx="1.86" cy="1.86" r="1.86" transform="translate(66.977 27.907)"/><circle class="c" cx="1.86" cy="1.86" r="1.86" transform="translate(66.977 83.721)"/><circle class="c" cx="1.86" cy="1.86" r="1.86" transform="translate(22.326 5.581)"/><circle class="c" cx="1.86" cy="1.86" r="1.86" transform="translate(22.326 61.395)"/><circle class="c" cx="1.86" cy="1.86" r="1.86" transform="translate(66.977 5.581)"/><circle class="c" cx="1.86" cy="1.86" r="1.86" transform="translate(66.977 61.395)"/><circle class="c" cx="1.86" cy="1.86" r="1.86" transform="translate(22.326 33.488)"/><circle class="c" cx="1.86" cy="1.86" r="1.86" transform="translate(22.326 89.302)"/><circle class="c" cx="1.86" cy="1.86" r="1.86" transform="translate(66.977 33.488)"/><circle class="c" cx="1.86" cy="1.86" r="1.86" transform="translate(66.977 89.302)"/><circle class="c" cx="1.86" cy="1.86" r="1.86" transform="translate(22.326 11.163)"/><circle class="c" cx="1.86" cy="1.86" r="1.86" transform="translate(22.326 66.977)"/><circle class="c" cx="1.86" cy="1.86" r="1.86" transform="translate(66.977 11.163)"/><circle class="c" cx="1.86" cy="1.86" r="1.86" transform="translate(66.977 66.977)"/><circle class="c" cx="1.86" cy="1.86" r="1.86" transform="translate(22.326 39.07)"/><circle class="c" cx="1.86" cy="1.86" r="1.86" transform="translate(22.326 94.884)"/><circle class="c" cx="1.86" cy="1.86" r="1.86" transform="translate(66.977 39.07)"/><circle class="c" cx="1.86" cy="1.86" r="1.86" transform="translate(66.977 94.884)"/><circle class="c" cx="1.86" cy="1.86" r="1.86" transform="translate(22.326 16.744)"/><circle class="c" cx="1.86" cy="1.86" r="1.86" transform="translate(22.326 72.558)"/><circle class="c" cx="1.86" cy="1.86" r="1.86" transform="translate(66.977 16.744)"/><circle class="c" cx="1.86" cy="1.86" r="1.86" transform="translate(66.977 72.558)"/><circle class="c" cx="1.86" cy="1.86" r="1.86" transform="translate(22.326 44.651)"/><circle class="c" cx="1.86" cy="1.86" r="1.86" transform="translate(22.326 100.465)"/><circle class="c" cx="1.86" cy="1.86" r="1.86" transform="translate(66.977 44.651)"/><circle class="c" cx="1.86" cy="1.86" r="1.86" transform="translate(66.977 100.465)"/><circle class="c" cx="1.86" cy="1.86" r="1.86" transform="translate(22.326 22.326)"/><circle class="c" cx="1.86" cy="1.86" r="1.86" transform="translate(22.326 78.14)"/><circle class="c" cx="1.86" cy="1.86" r="1.86" transform="translate(66.977 22.326)"/><circle class="c" cx="1.86" cy="1.86" r="1.86" transform="translate(66.977 78.14)"/><circle class="c" cx="1.86" cy="1.86" r="1.86" transform="translate(22.326 50.233)"/><circle class="c" cx="1.86" cy="1.86" r="1.86" transform="translate(22.326 106.047)"/><circle class="c" cx="1.86" cy="1.86" r="1.86" transform="translate(66.977 50.233)"/><circle class="c" cx="1.86" cy="1.86" r="1.86" transform="translate(66.977 106.047)"/><circle class="c" cx="1.86" cy="1.86" r="1.86" transform="translate(11.163)"/><circle class="c" cx="1.86" cy="1.86" r="1.86" transform="translate(11.163 55.814)"/><circle class="c" cx="1.86" cy="1.86" r="1.86" transform="translate(55.814)"/><circle class="c" cx="1.86" cy="1.86" r="1.86" transform="translate(55.814 55.814)"/><circle class="c" cx="1.86" cy="1.86" r="1.86" transform="translate(11.163 27.907)"/><circle class="c" cx="1.86" cy="1.86" r="1.86" transform="translate(11.163 83.721)"/><circle class="c" cx="1.86" cy="1.86" r="1.86" transform="translate(55.814 27.907)"/><circle class="c" cx="1.86" cy="1.86" r="1.86" transform="translate(55.814 83.721)"/><circle class="c" cx="1.86" cy="1.86" r="1.86" transform="translate(11.163 5.581)"/><circle class="c" cx="1.86" cy="1.86" r="1.86" transform="translate(11.163 61.395)"/><circle class="c" cx="1.86" cy="1.86" r="1.86" transform="translate(55.814 5.581)"/><circle class="c" cx="1.86" cy="1.86" r="1.86" transform="translate(55.814 61.395)"/><circle class="c" cx="1.86" cy="1.86" r="1.86" transform="translate(11.163 33.488)"/><circle class="c" cx="1.86" cy="1.86" r="1.86" transform="translate(11.163 89.302)"/><circle class="c" cx="1.86" cy="1.86" r="1.86" transform="translate(55.814 33.488)"/><circle class="c" cx="1.86" cy="1.86" r="1.86" transform="translate(55.814 89.302)"/><circle class="c" cx="1.86" cy="1.86" r="1.86" transform="translate(11.163 11.163)"/><circle class="c" cx="1.86" cy="1.86" r="1.86" transform="translate(11.163 66.977)"/><circle class="c" cx="1.86" cy="1.86" r="1.86" transform="translate(55.814 11.163)"/><circle class="c" cx="1.86" cy="1.86" r="1.86" transform="translate(55.814 66.977)"/><circle class="c" cx="1.86" cy="1.86" r="1.86" transform="translate(11.163 39.07)"/><circle class="c" cx="1.86" cy="1.86" r="1.86" transform="translate(11.163 94.884)"/><circle class="c" cx="1.86" cy="1.86" r="1.86" transform="translate(55.814 39.07)"/><circle class="c" cx="1.86" cy="1.86" r="1.86" transform="translate(55.814 94.884)"/><circle class="c" cx="1.86" cy="1.86" r="1.86" transform="translate(11.163 16.744)"/><circle class="c" cx="1.86" cy="1.86" r="1.86" transform="translate(11.163 72.558)"/><circle class="c" cx="1.86" cy="1.86" r="1.86" transform="translate(55.814 16.744)"/><circle class="c" cx="1.86" cy="1.86" r="1.86" transform="translate(55.814 72.558)"/><circle class="c" cx="1.86" cy="1.86" r="1.86" transform="translate(11.163 44.651)"/><circle class="c" cx="1.86" cy="1.86" r="1.86" transform="translate(11.163 100.465)"/><circle class="c" cx="1.86" cy="1.86" r="1.86" transform="translate(55.814 44.651)"/><circle class="c" cx="1.86" cy="1.86" r="1.86" transform="translate(55.814 100.465)"/><circle class="c" cx="1.86" cy="1.86" r="1.86" transform="translate(11.163 22.326)"/><circle class="c" cx="1.86" cy="1.86" r="1.86" transform="translate(11.163 78.14)"/><circle class="c" cx="1.86" cy="1.86" r="1.86" transform="translate(55.814 22.326)"/><circle class="c" cx="1.86" cy="1.86" r="1.86" transform="translate(55.814 78.14)"/><circle class="c" cx="1.86" cy="1.86" r="1.86" transform="translate(11.163 50.233)"/><circle class="c" cx="1.86" cy="1.86" r="1.86" transform="translate(11.163 106.047)"/><circle class="c" cx="1.86" cy="1.86" r="1.86" transform="translate(55.814 50.233)"/><circle class="c" cx="1.86" cy="1.86" r="1.86" transform="translate(55.814 106.047)"/><circle class="c" cx="1.86" cy="1.86" r="1.86" transform="translate(33.488)"/><circle class="c" cx="1.86" cy="1.86" r="1.86" transform="translate(33.488 55.814)"/><circle class="c" cx="1.86" cy="1.86" r="1.86" transform="translate(78.14)"/><circle class="c" cx="1.86" cy="1.86" r="1.86" transform="translate(78.14 55.814)"/><circle class="c" cx="1.86" cy="1.86" r="1.86" transform="translate(33.488 27.907)"/><circle class="c" cx="1.86" cy="1.86" r="1.86" transform="translate(33.488 83.721)"/><circle class="c" cx="1.86" cy="1.86" r="1.86" transform="translate(78.14 27.907)"/><circle class="c" cx="1.86" cy="1.86" r="1.86" transform="translate(78.14 83.721)"/><circle class="c" cx="1.86" cy="1.86" r="1.86" transform="translate(33.488 5.581)"/><circle class="c" cx="1.86" cy="1.86" r="1.86" transform="translate(33.488 61.395)"/><circle class="c" cx="1.86" cy="1.86" r="1.86" transform="translate(78.14 5.581)"/><circle class="c" cx="1.86" cy="1.86" r="1.86" transform="translate(78.14 61.395)"/><circle class="c" cx="1.86" cy="1.86" r="1.86" transform="translate(33.488 33.488)"/><circle class="c" cx="1.86" cy="1.86" r="1.86" transform="translate(33.488 89.302)"/><circle class="c" cx="1.86" cy="1.86" r="1.86" transform="translate(78.14 33.488)"/><circle class="c" cx="1.86" cy="1.86" r="1.86" transform="translate(78.14 89.302)"/><circle class="c" cx="1.86" cy="1.86" r="1.86" transform="translate(33.488 11.163)"/><circle class="c" cx="1.86" cy="1.86" r="1.86" transform="translate(33.488 66.977)"/><circle class="c" cx="1.86" cy="1.86" r="1.86" transform="translate(78.14 11.163)"/><circle class="c" cx="1.86" cy="1.86" r="1.86" transform="translate(78.14 66.977)"/><circle class="c" cx="1.86" cy="1.86" r="1.86" transform="translate(33.488 39.07)"/><circle class="c" cx="1.86" cy="1.86" r="1.86" transform="translate(33.488 94.884)"/><circle class="c" cx="1.86" cy="1.86" r="1.86" transform="translate(78.14 39.07)"/><circle class="c" cx="1.86" cy="1.86" r="1.86" transform="translate(78.14 94.884)"/><circle class="c" cx="1.86" cy="1.86" r="1.86" transform="translate(33.488 16.744)"/><circle class="c" cx="1.86" cy="1.86" r="1.86" transform="translate(33.488 72.558)"/><circle class="c" cx="1.86" cy="1.86" r="1.86" transform="translate(78.14 16.744)"/><circle class="c" cx="1.86" cy="1.86" r="1.86" transform="translate(78.14 72.558)"/><circle class="c" cx="1.86" cy="1.86" r="1.86" transform="translate(33.488 44.651)"/><circle class="c" cx="1.86" cy="1.86" r="1.86" transform="translate(33.488 100.465)"/><circle class="c" cx="1.86" cy="1.86" r="1.86" transform="translate(78.14 44.651)"/><circle class="c" cx="1.86" cy="1.86" r="1.86" transform="translate(78.14 100.465)"/><circle class="c" cx="1.86" cy="1.86" r="1.86" transform="translate(33.488 22.326)"/><circle class="c" cx="1.86" cy="1.86" r="1.86" transform="translate(33.488 78.14)"/><circle class="c" cx="1.86" cy="1.86" r="1.86" transform="translate(78.14 22.326)"/><circle class="c" cx="1.86" cy="1.86" r="1.86" transform="translate(78.14 78.14)"/><circle class="c" cx="1.86" cy="1.86" r="1.86" transform="translate(33.488 50.233)"/><circle class="c" cx="1.86" cy="1.86" r="1.86" transform="translate(33.488 106.047)"/><circle class="c" cx="1.86" cy="1.86" r="1.86" transform="translate(78.14 50.233)"/><circle class="c" cx="1.86" cy="1.86" r="1.86" transform="translate(78.14 106.047)"/><circle class="c" cx="1.86" cy="1.86" r="1.86" transform="translate(5.581)"/><circle class="c" cx="1.86" cy="1.86" r="1.86" transform="translate(5.581 55.814)"/><circle class="c" cx="1.86" cy="1.86" r="1.86" transform="translate(50.233)"/><circle class="c" cx="1.86" cy="1.86" r="1.86" transform="translate(50.233 55.814)"/><circle class="c" cx="1.86" cy="1.86" r="1.86" transform="translate(5.581 27.907)"/><circle class="c" cx="1.86" cy="1.86" r="1.86" transform="translate(5.581 83.721)"/><circle class="c" cx="1.86" cy="1.86" r="1.86" transform="translate(50.233 27.907)"/><circle class="c" cx="1.86" cy="1.86" r="1.86" transform="translate(50.233 83.721)"/><circle class="c" cx="1.86" cy="1.86" r="1.86" transform="translate(5.581 5.581)"/><circle class="c" cx="1.86" cy="1.86" r="1.86" transform="translate(5.581 61.395)"/><circle class="c" cx="1.86" cy="1.86" r="1.86" transform="translate(50.233 5.581)"/><circle class="c" cx="1.86" cy="1.86" r="1.86" transform="translate(50.233 61.395)"/><circle class="c" cx="1.86" cy="1.86" r="1.86" transform="translate(5.581 33.488)"/><circle class="c" cx="1.86" cy="1.86" r="1.86" transform="translate(5.581 89.302)"/><circle class="c" cx="1.86" cy="1.86" r="1.86" transform="translate(50.233 33.488)"/><circle class="c" cx="1.86" cy="1.86" r="1.86" transform="translate(50.233 89.302)"/><circle class="c" cx="1.86" cy="1.86" r="1.86" transform="translate(5.581 11.163)"/><circle class="c" cx="1.86" cy="1.86" r="1.86" transform="translate(5.581 66.977)"/><circle class="c" cx="1.86" cy="1.86" r="1.86" transform="translate(50.233 11.163)"/><circle class="c" cx="1.86" cy="1.86" r="1.86" transform="translate(50.233 66.977)"/><circle class="c" cx="1.86" cy="1.86" r="1.86" transform="translate(5.581 39.07)"/><circle class="c" cx="1.86" cy="1.86" r="1.86" transform="translate(5.581 94.884)"/><circle class="c" cx="1.86" cy="1.86" r="1.86" transform="translate(50.233 39.07)"/><circle class="c" cx="1.86" cy="1.86" r="1.86" transform="translate(50.233 94.884)"/><circle class="c" cx="1.86" cy="1.86" r="1.86" transform="translate(5.581 16.744)"/><circle class="c" cx="1.86" cy="1.86" r="1.86" transform="translate(5.581 72.558)"/><circle class="c" cx="1.86" cy="1.86" r="1.86" transform="translate(50.233 16.744)"/><circle class="c" cx="1.86" cy="1.86" r="1.86" transform="translate(50.233 72.558)"/><circle class="c" cx="1.86" cy="1.86" r="1.86" transform="translate(5.581 44.651)"/><circle class="c" cx="1.86" cy="1.86" r="1.86" transform="translate(5.581 100.465)"/><circle class="c" cx="1.86" cy="1.86" r="1.86" transform="translate(50.233 44.651)"/><circle class="c" cx="1.86" cy="1.86" r="1.86" transform="translate(50.233 100.465)"/><circle class="c" cx="1.86" cy="1.86" r="1.86" transform="translate(5.581 22.326)"/><circle class="c" cx="1.86" cy="1.86" r="1.86" transform="translate(5.581 78.14)"/><circle class="c" cx="1.86" cy="1.86" r="1.86" transform="translate(50.233 22.326)"/><circle class="c" cx="1.86" cy="1.86" r="1.86" transform="translate(50.233 78.14)"/><circle class="c" cx="1.86" cy="1.86" r="1.86" transform="translate(5.581 50.233)"/><circle class="c" cx="1.86" cy="1.86" r="1.86" transform="translate(5.581 106.047)"/><circle class="c" cx="1.86" cy="1.86" r="1.86" transform="translate(50.233 50.233)"/><circle class="c" cx="1.86" cy="1.86" r="1.86" transform="translate(50.233 106.047)"/><circle class="c" cx="1.86" cy="1.86" r="1.86" transform="translate(27.907)"/><circle class="c" cx="1.86" cy="1.86" r="1.86" transform="translate(27.907 55.814)"/><circle class="c" cx="1.86" cy="1.86" r="1.86" transform="translate(72.558)"/><circle class="c" cx="1.86" cy="1.86" r="1.86" transform="translate(72.558 55.814)"/><circle class="c" cx="1.86" cy="1.86" r="1.86" transform="translate(27.907 27.907)"/><circle class="c" cx="1.86" cy="1.86" r="1.86" transform="translate(27.907 83.721)"/><circle class="c" cx="1.86" cy="1.86" r="1.86" transform="translate(72.558 27.907)"/><circle class="c" cx="1.86" cy="1.86" r="1.86" transform="translate(72.558 83.721)"/><circle class="c" cx="1.86" cy="1.86" r="1.86" transform="translate(27.907 5.581)"/><circle class="c" cx="1.86" cy="1.86" r="1.86" transform="translate(27.907 61.395)"/><circle class="c" cx="1.86" cy="1.86" r="1.86" transform="translate(72.558 5.581)"/><circle class="c" cx="1.86" cy="1.86" r="1.86" transform="translate(72.558 61.395)"/><circle class="c" cx="1.86" cy="1.86" r="1.86" transform="translate(27.907 33.488)"/><circle class="c" cx="1.86" cy="1.86" r="1.86" transform="translate(27.907 89.302)"/><circle class="c" cx="1.86" cy="1.86" r="1.86" transform="translate(72.558 33.488)"/><circle class="c" cx="1.86" cy="1.86" r="1.86" transform="translate(72.558 89.302)"/><circle class="c" cx="1.86" cy="1.86" r="1.86" transform="translate(27.907 11.163)"/><circle class="c" cx="1.86" cy="1.86" r="1.86" transform="translate(27.907 66.977)"/><circle class="c" cx="1.86" cy="1.86" r="1.86" transform="translate(72.558 11.163)"/><circle class="c" cx="1.86" cy="1.86" r="1.86" transform="translate(72.558 66.977)"/><circle class="c" cx="1.86" cy="1.86" r="1.86" transform="translate(27.907 39.07)"/><circle class="c" cx="1.86" cy="1.86" r="1.86" transform="translate(27.907 94.884)"/><circle class="c" cx="1.86" cy="1.86" r="1.86" transform="translate(72.558 39.07)"/><circle class="c" cx="1.86" cy="1.86" r="1.86" transform="translate(72.558 94.884)"/><circle class="c" cx="1.86" cy="1.86" r="1.86" transform="translate(27.907 16.744)"/><circle class="c" cx="1.86" cy="1.86" r="1.86" transform="translate(27.907 72.558)"/><circle class="c" cx="1.86" cy="1.86" r="1.86" transform="translate(72.558 16.744)"/><circle class="c" cx="1.86" cy="1.86" r="1.86" transform="translate(72.558 72.558)"/><circle class="c" cx="1.86" cy="1.86" r="1.86" transform="translate(27.907 44.651)"/><circle class="c" cx="1.86" cy="1.86" r="1.86" transform="translate(27.907 100.465)"/><circle class="c" cx="1.86" cy="1.86" r="1.86" transform="translate(72.558 44.651)"/><circle class="c" cx="1.86" cy="1.86" r="1.86" transform="translate(72.558 100.465)"/><circle class="c" cx="1.86" cy="1.86" r="1.86" transform="translate(27.907 22.326)"/><circle class="c" cx="1.86" cy="1.86" r="1.86" transform="translate(27.907 78.14)"/><circle class="c" cx="1.86" cy="1.86" r="1.86" transform="translate(72.558 22.326)"/><circle class="c" cx="1.86" cy="1.86" r="1.86" transform="translate(72.558 78.14)"/><circle class="c" cx="1.86" cy="1.86" r="1.86" transform="translate(27.907 50.233)"/><circle class="c" cx="1.86" cy="1.86" r="1.86" transform="translate(27.907 106.047)"/><circle class="c" cx="1.86" cy="1.86" r="1.86" transform="translate(72.558 50.233)"/><circle class="c" cx="1.86" cy="1.86" r="1.86" transform="translate(72.558 106.047)"/><circle class="c" cx="1.86" cy="1.86" r="1.86" transform="translate(16.744)"/><circle class="c" cx="1.86" cy="1.86" r="1.86" transform="translate(16.744 55.814)"/><circle class="c" cx="1.86" cy="1.86" r="1.86" transform="translate(61.395)"/><circle class="c" cx="1.86" cy="1.86" r="1.86" transform="translate(61.395 55.814)"/><circle class="c" cx="1.86" cy="1.86" r="1.86" transform="translate(16.744 27.907)"/><circle class="c" cx="1.86" cy="1.86" r="1.86" transform="translate(16.744 83.721)"/><circle class="c" cx="1.86" cy="1.86" r="1.86" transform="translate(61.395 27.907)"/><circle class="c" cx="1.86" cy="1.86" r="1.86" transform="translate(61.395 83.721)"/><circle class="c" cx="1.86" cy="1.86" r="1.86" transform="translate(16.744 5.581)"/><circle class="c" cx="1.86" cy="1.86" r="1.86" transform="translate(16.744 61.395)"/><circle class="c" cx="1.86" cy="1.86" r="1.86" transform="translate(61.395 5.581)"/><circle class="c" cx="1.86" cy="1.86" r="1.86" transform="translate(61.395 61.395)"/><circle class="c" cx="1.86" cy="1.86" r="1.86" transform="translate(16.744 33.488)"/><circle class="c" cx="1.86" cy="1.86" r="1.86" transform="translate(16.744 89.302)"/><circle class="c" cx="1.86" cy="1.86" r="1.86" transform="translate(61.395 33.488)"/><circle class="c" cx="1.86" cy="1.86" r="1.86" transform="translate(61.395 89.302)"/><circle class="c" cx="1.86" cy="1.86" r="1.86" transform="translate(16.744 11.163)"/><circle class="c" cx="1.86" cy="1.86" r="1.86" transform="translate(16.744 66.977)"/><circle class="c" cx="1.86" cy="1.86" r="1.86" transform="translate(61.395 11.163)"/><circle class="c" cx="1.86" cy="1.86" r="1.86" transform="translate(61.395 66.977)"/><circle class="c" cx="1.86" cy="1.86" r="1.86" transform="translate(16.744 39.07)"/><circle class="c" cx="1.86" cy="1.86" r="1.86" transform="translate(16.744 94.884)"/><circle class="c" cx="1.86" cy="1.86" r="1.86" transform="translate(61.395 39.07)"/><circle class="c" cx="1.86" cy="1.86" r="1.86" transform="translate(61.395 94.884)"/><circle class="c" cx="1.86" cy="1.86" r="1.86" transform="translate(16.744 16.744)"/><circle class="c" cx="1.86" cy="1.86" r="1.86" transform="translate(16.744 72.558)"/><circle class="c" cx="1.86" cy="1.86" r="1.86" transform="translate(61.395 16.744)"/><circle class="c" cx="1.86" cy="1.86" r="1.86" transform="translate(61.395 72.558)"/><circle class="c" cx="1.86" cy="1.86" r="1.86" transform="translate(16.744 44.651)"/><circle class="c" cx="1.86" cy="1.86" r="1.86" transform="translate(16.744 100.465)"/><circle class="c" cx="1.86" cy="1.86" r="1.86" transform="translate(61.395 44.651)"/><circle class="c" cx="1.86" cy="1.86" r="1.86" transform="translate(61.395 100.465)"/><circle class="c" cx="1.86" cy="1.86" r="1.86" transform="translate(16.744 22.326)"/><circle class="c" cx="1.86" cy="1.86" r="1.86" transform="translate(16.744 78.14)"/><circle class="c" cx="1.86" cy="1.86" r="1.86" transform="translate(61.395 22.326)"/><circle class="c" cx="1.86" cy="1.86" r="1.86" transform="translate(61.395 78.14)"/><circle class="c" cx="1.86" cy="1.86" r="1.86" transform="translate(16.744 50.233)"/><circle class="c" cx="1.86" cy="1.86" r="1.86" transform="translate(16.744 106.047)"/><circle class="c" cx="1.86" cy="1.86" r="1.86" transform="translate(61.395 50.233)"/><circle class="c" cx="1.86" cy="1.86" r="1.86" transform="translate(61.395 106.047)"/><circle class="c" cx="1.86" cy="1.86" r="1.86" transform="translate(39.07)"/><circle class="c" cx="1.86" cy="1.86" r="1.86" transform="translate(39.07 55.814)"/><circle class="c" cx="1.86" cy="1.86" r="1.86" transform="translate(83.721)"/><circle class="c" cx="1.86" cy="1.86" r="1.86" transform="translate(83.721 55.814)"/><circle class="c" cx="1.86" cy="1.86" r="1.86" transform="translate(39.07 27.907)"/><circle class="c" cx="1.86" cy="1.86" r="1.86" transform="translate(39.07 83.721)"/><circle class="c" cx="1.86" cy="1.86" r="1.86" transform="translate(83.721 27.907)"/><circle class="c" cx="1.86" cy="1.86" r="1.86" transform="translate(83.721 83.721)"/><circle class="c" cx="1.86" cy="1.86" r="1.86" transform="translate(39.07 5.581)"/><circle class="c" cx="1.86" cy="1.86" r="1.86" transform="translate(39.07 61.395)"/><circle class="c" cx="1.86" cy="1.86" r="1.86" transform="translate(83.721 5.581)"/><circle class="c" cx="1.86" cy="1.86" r="1.86" transform="translate(83.721 61.395)"/><circle class="c" cx="1.86" cy="1.86" r="1.86" transform="translate(39.07 33.488)"/><circle class="c" cx="1.86" cy="1.86" r="1.86" transform="translate(39.07 89.302)"/><circle class="c" cx="1.86" cy="1.86" r="1.86" transform="translate(83.721 33.488)"/><circle class="c" cx="1.86" cy="1.86" r="1.86" transform="translate(83.721 89.302)"/><circle class="c" cx="1.86" cy="1.86" r="1.86" transform="translate(39.07 11.163)"/><circle class="c" cx="1.86" cy="1.86" r="1.86" transform="translate(39.07 66.977)"/><circle class="c" cx="1.86" cy="1.86" r="1.86" transform="translate(83.721 11.163)"/><circle class="c" cx="1.86" cy="1.86" r="1.86" transform="translate(83.721 66.977)"/><circle class="c" cx="1.86" cy="1.86" r="1.86" transform="translate(39.07 39.07)"/><circle class="c" cx="1.86" cy="1.86" r="1.86" transform="translate(39.07 94.884)"/><circle class="c" cx="1.86" cy="1.86" r="1.86" transform="translate(83.721 39.07)"/><circle class="c" cx="1.86" cy="1.86" r="1.86" transform="translate(83.721 94.884)"/><circle class="c" cx="1.86" cy="1.86" r="1.86" transform="translate(39.07 16.744)"/><circle class="c" cx="1.86" cy="1.86" r="1.86" transform="translate(39.07 72.558)"/><circle class="c" cx="1.86" cy="1.86" r="1.86" transform="translate(83.721 16.744)"/><circle class="c" cx="1.86" cy="1.86" r="1.86" transform="translate(83.721 72.558)"/><circle class="c" cx="1.86" cy="1.86" r="1.86" transform="translate(39.07 44.651)"/><circle class="c" cx="1.86" cy="1.86" r="1.86" transform="translate(39.07 100.465)"/><circle class="c" cx="1.86" cy="1.86" r="1.86" transform="translate(83.721 44.651)"/><circle class="c" cx="1.86" cy="1.86" r="1.86" transform="translate(83.721 100.465)"/><circle class="c" cx="1.86" cy="1.86" r="1.86" transform="translate(39.07 22.326)"/><circle class="c" cx="1.86" cy="1.86" r="1.86" transform="translate(39.07 78.14)"/><circle class="c" cx="1.86" cy="1.86" r="1.86" transform="translate(83.721 22.326)"/><circle class="c" cx="1.86" cy="1.86" r="1.86" transform="translate(83.721 78.14)"/><circle class="c" cx="1.86" cy="1.86" r="1.86" transform="translate(39.07 50.233)"/><circle class="c" cx="1.86" cy="1.86" r="1.86" transform="translate(39.07 106.047)"/><circle class="c" cx="1.86" cy="1.86" r="1.86" transform="translate(83.721 50.233)"/><circle class="c" cx="1.86" cy="1.86" r="1.86" transform="translate(83.721 106.047)"/></g></g><g class="d" transform="translate(-14 144)"><g transform="translate(258.86 30.581)"><circle class="c" cx="1.07" cy="1.07" r="1.07"/><circle class="c" cx="1.07" cy="1.07" r="1.07" transform="translate(0 32.093)"/><circle class="c" cx="1.07" cy="1.07" r="1.07" transform="translate(25.674)"/><circle class="c" cx="1.07" cy="1.07" r="1.07" transform="translate(25.674 32.093)"/><circle class="c" cx="1.07" cy="1.07" r="1.07" transform="translate(0 16.047)"/><circle class="c" cx="1.07" cy="1.07" r="1.07" transform="translate(0 48.14)"/><circle class="c" cx="1.07" cy="1.07" r="1.07" transform="translate(25.674 16.047)"/><circle class="c" cx="1.07" cy="1.07" r="1.07" transform="translate(25.674 48.14)"/><circle class="c" cx="1.07" cy="1.07" r="1.07" transform="translate(0 3.209)"/><circle class="c" cx="1.07" cy="1.07" r="1.07" transform="translate(0 35.302)"/><circle class="c" cx="1.07" cy="1.07" r="1.07" transform="translate(25.674 3.209)"/><circle class="c" cx="1.07" cy="1.07" r="1.07" transform="translate(25.674 35.302)"/><circle class="c" cx="1.07" cy="1.07" r="1.07" transform="translate(0 19.256)"/><circle class="c" cx="1.07" cy="1.07" r="1.07" transform="translate(0 51.349)"/><circle class="c" cx="1.07" cy="1.07" r="1.07" transform="translate(25.674 19.256)"/><circle class="c" cx="1.07" cy="1.07" r="1.07" transform="translate(25.674 51.349)"/><circle class="c" cx="1.07" cy="1.07" r="1.07" transform="translate(0 6.419)"/><circle class="c" cx="1.07" cy="1.07" r="1.07" transform="translate(0 38.512)"/><circle class="c" cx="1.07" cy="1.07" r="1.07" transform="translate(25.674 6.419)"/><circle class="c" cx="1.07" cy="1.07" r="1.07" transform="translate(25.674 38.512)"/><circle class="c" cx="1.07" cy="1.07" r="1.07" transform="translate(0 22.465)"/><circle class="c" cx="1.07" cy="1.07" r="1.07" transform="translate(0 54.558)"/><circle class="c" cx="1.07" cy="1.07" r="1.07" transform="translate(25.674 22.465)"/><circle class="c" cx="1.07" cy="1.07" r="1.07" transform="translate(25.674 54.558)"/><circle class="c" cx="1.07" cy="1.07" r="1.07" transform="translate(0 9.628)"/><circle class="c" cx="1.07" cy="1.07" r="1.07" transform="translate(0 41.721)"/><circle class="c" cx="1.07" cy="1.07" r="1.07" transform="translate(25.674 9.628)"/><circle class="c" cx="1.07" cy="1.07" r="1.07" transform="translate(25.674 41.721)"/><circle class="c" cx="1.07" cy="1.07" r="1.07" transform="translate(0 25.674)"/><circle class="c" cx="1.07" cy="1.07" r="1.07" transform="translate(0 57.767)"/><circle class="c" cx="1.07" cy="1.07" r="1.07" transform="translate(25.674 25.674)"/><circle class="c" cx="1.07" cy="1.07" r="1.07" transform="translate(25.674 57.767)"/><circle class="c" cx="1.07" cy="1.07" r="1.07" transform="translate(0 12.837)"/><circle class="c" cx="1.07" cy="1.07" r="1.07" transform="translate(0 44.93)"/><circle class="c" cx="1.07" cy="1.07" r="1.07" transform="translate(25.674 12.837)"/><circle class="c" cx="1.07" cy="1.07" r="1.07" transform="translate(25.674 44.93)"/><circle class="c" cx="1.07" cy="1.07" r="1.07" transform="translate(0 28.884)"/><circle class="c" cx="1.07" cy="1.07" r="1.07" transform="translate(0 60.977)"/><circle class="c" cx="1.07" cy="1.07" r="1.07" transform="translate(25.674 28.884)"/><circle class="c" cx="1.07" cy="1.07" r="1.07" transform="translate(25.674 60.977)"/><circle class="c" cx="1.07" cy="1.07" r="1.07" transform="translate(12.837)"/><circle class="c" cx="1.07" cy="1.07" r="1.07" transform="translate(12.837 32.093)"/><circle class="c" cx="1.07" cy="1.07" r="1.07" transform="translate(38.512)"/><circle class="c" cx="1.07" cy="1.07" r="1.07" transform="translate(38.512 32.093)"/><circle class="c" cx="1.07" cy="1.07" r="1.07" transform="translate(12.837 16.047)"/><circle class="c" cx="1.07" cy="1.07" r="1.07" transform="translate(12.837 48.14)"/><circle class="c" cx="1.07" cy="1.07" r="1.07" transform="translate(38.512 16.047)"/><circle class="c" cx="1.07" cy="1.07" r="1.07" transform="translate(38.512 48.14)"/><circle class="c" cx="1.07" cy="1.07" r="1.07" transform="translate(12.837 3.209)"/><circle class="c" cx="1.07" cy="1.07" r="1.07" transform="translate(12.837 35.302)"/><circle class="c" cx="1.07" cy="1.07" r="1.07" transform="translate(38.512 3.209)"/><circle class="c" cx="1.07" cy="1.07" r="1.07" transform="translate(38.512 35.302)"/><circle class="c" cx="1.07" cy="1.07" r="1.07" transform="translate(12.837 19.256)"/><circle class="c" cx="1.07" cy="1.07" r="1.07" transform="translate(12.837 51.349)"/><circle class="c" cx="1.07" cy="1.07" r="1.07" transform="translate(38.512 19.256)"/><circle class="c" cx="1.07" cy="1.07" r="1.07" transform="translate(38.512 51.349)"/><circle class="c" cx="1.07" cy="1.07" r="1.07" transform="translate(12.837 6.419)"/><circle class="c" cx="1.07" cy="1.07" r="1.07" transform="translate(12.837 38.512)"/><circle class="c" cx="1.07" cy="1.07" r="1.07" transform="translate(38.512 6.419)"/><circle class="c" cx="1.07" cy="1.07" r="1.07" transform="translate(38.512 38.512)"/><circle class="c" cx="1.07" cy="1.07" r="1.07" transform="translate(12.837 22.465)"/><circle class="c" cx="1.07" cy="1.07" r="1.07" transform="translate(12.837 54.558)"/><circle class="c" cx="1.07" cy="1.07" r="1.07" transform="translate(38.512 22.465)"/><circle class="c" cx="1.07" cy="1.07" r="1.07" transform="translate(38.512 54.558)"/><circle class="c" cx="1.07" cy="1.07" r="1.07" transform="translate(12.837 9.628)"/><circle class="c" cx="1.07" cy="1.07" r="1.07" transform="translate(12.837 41.721)"/><circle class="c" cx="1.07" cy="1.07" r="1.07" transform="translate(38.512 9.628)"/><circle class="c" cx="1.07" cy="1.07" r="1.07" transform="translate(38.512 41.721)"/><circle class="c" cx="1.07" cy="1.07" r="1.07" transform="translate(12.837 25.674)"/><circle class="c" cx="1.07" cy="1.07" r="1.07" transform="translate(12.837 57.767)"/><circle class="c" cx="1.07" cy="1.07" r="1.07" transform="translate(38.512 25.674)"/><circle class="c" cx="1.07" cy="1.07" r="1.07" transform="translate(38.512 57.767)"/><circle class="c" cx="1.07" cy="1.07" r="1.07" transform="translate(12.837 12.837)"/><circle class="c" cx="1.07" cy="1.07" r="1.07" transform="translate(12.837 44.93)"/><circle class="c" cx="1.07" cy="1.07" r="1.07" transform="translate(38.512 12.837)"/><circle class="c" cx="1.07" cy="1.07" r="1.07" transform="translate(38.512 44.93)"/><circle class="c" cx="1.07" cy="1.07" r="1.07" transform="translate(12.837 28.884)"/><circle class="c" cx="1.07" cy="1.07" r="1.07" transform="translate(12.837 60.977)"/><circle class="c" cx="1.07" cy="1.07" r="1.07" transform="translate(38.512 28.884)"/><circle class="c" cx="1.07" cy="1.07" r="1.07" transform="translate(38.512 60.977)"/><circle class="c" cx="1.07" cy="1.07" r="1.07" transform="translate(6.419)"/><circle class="c" cx="1.07" cy="1.07" r="1.07" transform="translate(6.419 32.093)"/><circle class="c" cx="1.07" cy="1.07" r="1.07" transform="translate(32.093)"/><circle class="c" cx="1.07" cy="1.07" r="1.07" transform="translate(32.093 32.093)"/><circle class="c" cx="1.07" cy="1.07" r="1.07" transform="translate(6.419 16.047)"/><circle class="c" cx="1.07" cy="1.07" r="1.07" transform="translate(6.419 48.14)"/><circle class="c" cx="1.07" cy="1.07" r="1.07" transform="translate(32.093 16.047)"/><circle class="c" cx="1.07" cy="1.07" r="1.07" transform="translate(32.093 48.14)"/><circle class="c" cx="1.07" cy="1.07" r="1.07" transform="translate(6.419 3.209)"/><circle class="c" cx="1.07" cy="1.07" r="1.07" transform="translate(6.419 35.302)"/><circle class="c" cx="1.07" cy="1.07" r="1.07" transform="translate(32.093 3.209)"/><circle class="c" cx="1.07" cy="1.07" r="1.07" transform="translate(32.093 35.302)"/><circle class="c" cx="1.07" cy="1.07" r="1.07" transform="translate(6.419 19.256)"/><circle class="c" cx="1.07" cy="1.07" r="1.07" transform="translate(6.419 51.349)"/><circle class="c" cx="1.07" cy="1.07" r="1.07" transform="translate(32.093 19.256)"/><circle class="c" cx="1.07" cy="1.07" r="1.07" transform="translate(32.093 51.349)"/><circle class="c" cx="1.07" cy="1.07" r="1.07" transform="translate(6.419 6.419)"/><circle class="c" cx="1.07" cy="1.07" r="1.07" transform="translate(6.419 38.512)"/><circle class="c" cx="1.07" cy="1.07" r="1.07" transform="translate(32.093 6.419)"/><circle class="c" cx="1.07" cy="1.07" r="1.07" transform="translate(32.093 38.512)"/><circle class="c" cx="1.07" cy="1.07" r="1.07" transform="translate(6.419 22.465)"/><circle class="c" cx="1.07" cy="1.07" r="1.07" transform="translate(6.419 54.558)"/><circle class="c" cx="1.07" cy="1.07" r="1.07" transform="translate(32.093 22.465)"/><circle class="c" cx="1.07" cy="1.07" r="1.07" transform="translate(32.093 54.558)"/><circle class="c" cx="1.07" cy="1.07" r="1.07" transform="translate(6.419 9.628)"/><circle class="c" cx="1.07" cy="1.07" r="1.07" transform="translate(6.419 41.721)"/><circle class="c" cx="1.07" cy="1.07" r="1.07" transform="translate(32.093 9.628)"/><circle class="c" cx="1.07" cy="1.07" r="1.07" transform="translate(32.093 41.721)"/><circle class="c" cx="1.07" cy="1.07" r="1.07" transform="translate(6.419 25.674)"/><circle class="c" cx="1.07" cy="1.07" r="1.07" transform="translate(6.419 57.767)"/><circle class="c" cx="1.07" cy="1.07" r="1.07" transform="translate(32.093 25.674)"/><circle class="c" cx="1.07" cy="1.07" r="1.07" transform="translate(32.093 57.767)"/><circle class="c" cx="1.07" cy="1.07" r="1.07" transform="translate(6.419 12.837)"/><circle class="c" cx="1.07" cy="1.07" r="1.07" transform="translate(6.419 44.93)"/><circle class="c" cx="1.07" cy="1.07" r="1.07" transform="translate(32.093 12.837)"/><circle class="c" cx="1.07" cy="1.07" r="1.07" transform="translate(32.093 44.93)"/><circle class="c" cx="1.07" cy="1.07" r="1.07" transform="translate(6.419 28.884)"/><circle class="c" cx="1.07" cy="1.07" r="1.07" transform="translate(6.419 60.977)"/><circle class="c" cx="1.07" cy="1.07" r="1.07" transform="translate(32.093 28.884)"/><circle class="c" cx="1.07" cy="1.07" r="1.07" transform="translate(32.093 60.977)"/><circle class="c" cx="1.07" cy="1.07" r="1.07" transform="translate(19.256)"/><circle class="c" cx="1.07" cy="1.07" r="1.07" transform="translate(19.256 32.093)"/><circle class="c" cx="1.07" cy="1.07" r="1.07" transform="translate(44.93)"/><circle class="c" cx="1.07" cy="1.07" r="1.07" transform="translate(44.93 32.093)"/><circle class="c" cx="1.07" cy="1.07" r="1.07" transform="translate(19.256 16.047)"/><circle class="c" cx="1.07" cy="1.07" r="1.07" transform="translate(19.256 48.14)"/><circle class="c" cx="1.07" cy="1.07" r="1.07" transform="translate(44.93 16.047)"/><circle class="c" cx="1.07" cy="1.07" r="1.07" transform="translate(44.93 48.14)"/><circle class="c" cx="1.07" cy="1.07" r="1.07" transform="translate(19.256 3.209)"/><circle class="c" cx="1.07" cy="1.07" r="1.07" transform="translate(19.256 35.302)"/><circle class="c" cx="1.07" cy="1.07" r="1.07" transform="translate(44.93 3.209)"/><circle class="c" cx="1.07" cy="1.07" r="1.07" transform="translate(44.93 35.302)"/><circle class="c" cx="1.07" cy="1.07" r="1.07" transform="translate(19.256 19.256)"/><circle class="c" cx="1.07" cy="1.07" r="1.07" transform="translate(19.256 51.349)"/><circle class="c" cx="1.07" cy="1.07" r="1.07" transform="translate(44.93 19.256)"/><circle class="c" cx="1.07" cy="1.07" r="1.07" transform="translate(44.93 51.349)"/><circle class="c" cx="1.07" cy="1.07" r="1.07" transform="translate(19.256 6.419)"/><circle class="c" cx="1.07" cy="1.07" r="1.07" transform="translate(19.256 38.512)"/><circle class="c" cx="1.07" cy="1.07" r="1.07" transform="translate(44.93 6.419)"/><circle class="c" cx="1.07" cy="1.07" r="1.07" transform="translate(44.93 38.512)"/><circle class="c" cx="1.07" cy="1.07" r="1.07" transform="translate(19.256 22.465)"/><circle class="c" cx="1.07" cy="1.07" r="1.07" transform="translate(19.256 54.558)"/><circle class="c" cx="1.07" cy="1.07" r="1.07" transform="translate(44.93 22.465)"/><circle class="c" cx="1.07" cy="1.07" r="1.07" transform="translate(44.93 54.558)"/><circle class="c" cx="1.07" cy="1.07" r="1.07" transform="translate(19.256 9.628)"/><circle class="c" cx="1.07" cy="1.07" r="1.07" transform="translate(19.256 41.721)"/><circle class="c" cx="1.07" cy="1.07" r="1.07" transform="translate(44.93 9.628)"/><circle class="c" cx="1.07" cy="1.07" r="1.07" transform="translate(44.93 41.721)"/><circle class="c" cx="1.07" cy="1.07" r="1.07" transform="translate(19.256 25.674)"/><circle class="c" cx="1.07" cy="1.07" r="1.07" transform="translate(19.256 57.767)"/><circle class="c" cx="1.07" cy="1.07" r="1.07" transform="translate(44.93 25.674)"/><circle class="c" cx="1.07" cy="1.07" r="1.07" transform="translate(44.93 57.767)"/><circle class="c" cx="1.07" cy="1.07" r="1.07" transform="translate(19.256 12.837)"/><circle class="c" cx="1.07" cy="1.07" r="1.07" transform="translate(19.256 44.93)"/><circle class="c" cx="1.07" cy="1.07" r="1.07" transform="translate(44.93 12.837)"/><circle class="c" cx="1.07" cy="1.07" r="1.07" transform="translate(44.93 44.93)"/><circle class="c" cx="1.07" cy="1.07" r="1.07" transform="translate(19.256 28.884)"/><circle class="c" cx="1.07" cy="1.07" r="1.07" transform="translate(19.256 60.977)"/><circle class="c" cx="1.07" cy="1.07" r="1.07" transform="translate(44.93 28.884)"/><circle class="c" cx="1.07" cy="1.07" r="1.07" transform="translate(44.93 60.977)"/><circle class="c" cx="1.07" cy="1.07" r="1.07" transform="translate(3.209)"/><circle class="c" cx="1.07" cy="1.07" r="1.07" transform="translate(3.209 32.093)"/><circle class="c" cx="1.07" cy="1.07" r="1.07" transform="translate(28.884)"/><circle class="c" cx="1.07" cy="1.07" r="1.07" transform="translate(28.884 32.093)"/><circle class="c" cx="1.07" cy="1.07" r="1.07" transform="translate(3.209 16.047)"/><circle class="c" cx="1.07" cy="1.07" r="1.07" transform="translate(3.209 48.14)"/><circle class="c" cx="1.07" cy="1.07" r="1.07" transform="translate(28.884 16.047)"/><circle class="c" cx="1.07" cy="1.07" r="1.07" transform="translate(28.884 48.14)"/><circle class="c" cx="1.07" cy="1.07" r="1.07" transform="translate(3.209 3.209)"/><circle class="c" cx="1.07" cy="1.07" r="1.07" transform="translate(3.209 35.302)"/><circle class="c" cx="1.07" cy="1.07" r="1.07" transform="translate(28.884 3.209)"/><circle class="c" cx="1.07" cy="1.07" r="1.07" transform="translate(28.884 35.302)"/><circle class="c" cx="1.07" cy="1.07" r="1.07" transform="translate(3.209 19.256)"/><circle class="c" cx="1.07" cy="1.07" r="1.07" transform="translate(3.209 51.349)"/><circle class="c" cx="1.07" cy="1.07" r="1.07" transform="translate(28.884 19.256)"/><circle class="c" cx="1.07" cy="1.07" r="1.07" transform="translate(28.884 51.349)"/><circle class="c" cx="1.07" cy="1.07" r="1.07" transform="translate(3.209 6.419)"/><circle class="c" cx="1.07" cy="1.07" r="1.07" transform="translate(3.209 38.512)"/><circle class="c" cx="1.07" cy="1.07" r="1.07" transform="translate(28.884 6.419)"/><circle class="c" cx="1.07" cy="1.07" r="1.07" transform="translate(28.884 38.512)"/><circle class="c" cx="1.07" cy="1.07" r="1.07" transform="translate(3.209 22.465)"/><circle class="c" cx="1.07" cy="1.07" r="1.07" transform="translate(3.209 54.558)"/><circle class="c" cx="1.07" cy="1.07" r="1.07" transform="translate(28.884 22.465)"/><circle class="c" cx="1.07" cy="1.07" r="1.07" transform="translate(28.884 54.558)"/><circle class="c" cx="1.07" cy="1.07" r="1.07" transform="translate(3.209 9.628)"/><circle class="c" cx="1.07" cy="1.07" r="1.07" transform="translate(3.209 41.721)"/><circle class="c" cx="1.07" cy="1.07" r="1.07" transform="translate(28.884 9.628)"/><circle class="c" cx="1.07" cy="1.07" r="1.07" transform="translate(28.884 41.721)"/><circle class="c" cx="1.07" cy="1.07" r="1.07" transform="translate(3.209 25.674)"/><circle class="c" cx="1.07" cy="1.07" r="1.07" transform="translate(3.209 57.767)"/><circle class="c" cx="1.07" cy="1.07" r="1.07" transform="translate(28.884 25.674)"/><circle class="c" cx="1.07" cy="1.07" r="1.07" transform="translate(28.884 57.767)"/><circle class="c" cx="1.07" cy="1.07" r="1.07" transform="translate(3.209 12.837)"/><circle class="c" cx="1.07" cy="1.07" r="1.07" transform="translate(3.209 44.93)"/><circle class="c" cx="1.07" cy="1.07" r="1.07" transform="translate(28.884 12.837)"/><circle class="c" cx="1.07" cy="1.07" r="1.07" transform="translate(28.884 44.93)"/><circle class="c" cx="1.07" cy="1.07" r="1.07" transform="translate(3.209 28.884)"/><circle class="c" cx="1.07" cy="1.07" r="1.07" transform="translate(3.209 60.977)"/><circle class="c" cx="1.07" cy="1.07" r="1.07" transform="translate(28.884 28.884)"/><circle class="c" cx="1.07" cy="1.07" r="1.07" transform="translate(28.884 60.977)"/><circle class="c" cx="1.07" cy="1.07" r="1.07" transform="translate(16.047)"/><circle class="c" cx="1.07" cy="1.07" r="1.07" transform="translate(16.047 32.093)"/><circle class="c" cx="1.07" cy="1.07" r="1.07" transform="translate(41.721)"/><circle class="c" cx="1.07" cy="1.07" r="1.07" transform="translate(41.721 32.093)"/><circle class="c" cx="1.07" cy="1.07" r="1.07" transform="translate(16.047 16.047)"/><circle class="c" cx="1.07" cy="1.07" r="1.07" transform="translate(16.047 48.14)"/><circle class="c" cx="1.07" cy="1.07" r="1.07" transform="translate(41.721 16.047)"/><circle class="c" cx="1.07" cy="1.07" r="1.07" transform="translate(41.721 48.14)"/><circle class="c" cx="1.07" cy="1.07" r="1.07" transform="translate(16.047 3.209)"/><circle class="c" cx="1.07" cy="1.07" r="1.07" transform="translate(16.047 35.302)"/><circle class="c" cx="1.07" cy="1.07" r="1.07" transform="translate(41.721 3.209)"/><circle class="c" cx="1.07" cy="1.07" r="1.07" transform="translate(41.721 35.302)"/><circle class="c" cx="1.07" cy="1.07" r="1.07" transform="translate(16.047 19.256)"/><circle class="c" cx="1.07" cy="1.07" r="1.07" transform="translate(16.047 51.349)"/><circle class="c" cx="1.07" cy="1.07" r="1.07" transform="translate(41.721 19.256)"/><circle class="c" cx="1.07" cy="1.07" r="1.07" transform="translate(41.721 51.349)"/><circle class="c" cx="1.07" cy="1.07" r="1.07" transform="translate(16.047 6.419)"/><circle class="c" cx="1.07" cy="1.07" r="1.07" transform="translate(16.047 38.512)"/><circle class="c" cx="1.07" cy="1.07" r="1.07" transform="translate(41.721 6.419)"/><circle class="c" cx="1.07" cy="1.07" r="1.07" transform="translate(41.721 38.512)"/><circle class="c" cx="1.07" cy="1.07" r="1.07" transform="translate(16.047 22.465)"/><circle class="c" cx="1.07" cy="1.07" r="1.07" transform="translate(16.047 54.558)"/><circle class="c" cx="1.07" cy="1.07" r="1.07" transform="translate(41.721 22.465)"/><circle class="c" cx="1.07" cy="1.07" r="1.07" transform="translate(41.721 54.558)"/><circle class="c" cx="1.07" cy="1.07" r="1.07" transform="translate(16.047 9.628)"/><circle class="c" cx="1.07" cy="1.07" r="1.07" transform="translate(16.047 41.721)"/><circle class="c" cx="1.07" cy="1.07" r="1.07" transform="translate(41.721 9.628)"/><circle class="c" cx="1.07" cy="1.07" r="1.07" transform="translate(41.721 41.721)"/><circle class="c" cx="1.07" cy="1.07" r="1.07" transform="translate(16.047 25.674)"/><circle class="c" cx="1.07" cy="1.07" r="1.07" transform="translate(16.047 57.767)"/><circle class="c" cx="1.07" cy="1.07" r="1.07" transform="translate(41.721 25.674)"/><circle class="c" cx="1.07" cy="1.07" r="1.07" transform="translate(41.721 57.767)"/><circle class="c" cx="1.07" cy="1.07" r="1.07" transform="translate(16.047 12.837)"/><circle class="c" cx="1.07" cy="1.07" r="1.07" transform="translate(16.047 44.93)"/><circle class="c" cx="1.07" cy="1.07" r="1.07" transform="translate(41.721 12.837)"/><circle class="c" cx="1.07" cy="1.07" r="1.07" transform="translate(41.721 44.93)"/><circle class="c" cx="1.07" cy="1.07" r="1.07" transform="translate(16.047 28.884)"/><circle class="c" cx="1.07" cy="1.07" r="1.07" transform="translate(16.047 60.977)"/><circle class="c" cx="1.07" cy="1.07" r="1.07" transform="translate(41.721 28.884)"/><circle class="c" cx="1.07" cy="1.07" r="1.07" transform="translate(41.721 60.977)"/><circle class="c" cx="1.07" cy="1.07" r="1.07" transform="translate(9.628)"/><circle class="c" cx="1.07" cy="1.07" r="1.07" transform="translate(9.628 32.093)"/><circle class="c" cx="1.07" cy="1.07" r="1.07" transform="translate(35.302)"/><circle class="c" cx="1.07" cy="1.07" r="1.07" transform="translate(35.302 32.093)"/><circle class="c" cx="1.07" cy="1.07" r="1.07" transform="translate(9.628 16.047)"/><circle class="c" cx="1.07" cy="1.07" r="1.07" transform="translate(9.628 48.14)"/><circle class="c" cx="1.07" cy="1.07" r="1.07" transform="translate(35.302 16.047)"/><circle class="c" cx="1.07" cy="1.07" r="1.07" transform="translate(35.302 48.14)"/><circle class="c" cx="1.07" cy="1.07" r="1.07" transform="translate(9.628 3.209)"/><circle class="c" cx="1.07" cy="1.07" r="1.07" transform="translate(9.628 35.302)"/><circle class="c" cx="1.07" cy="1.07" r="1.07" transform="translate(35.302 3.209)"/><circle class="c" cx="1.07" cy="1.07" r="1.07" transform="translate(35.302 35.302)"/><circle class="c" cx="1.07" cy="1.07" r="1.07" transform="translate(9.628 19.256)"/><circle class="c" cx="1.07" cy="1.07" r="1.07" transform="translate(9.628 51.349)"/><circle class="c" cx="1.07" cy="1.07" r="1.07" transform="translate(35.302 19.256)"/><circle class="c" cx="1.07" cy="1.07" r="1.07" transform="translate(35.302 51.349)"/><circle class="c" cx="1.07" cy="1.07" r="1.07" transform="translate(9.628 6.419)"/><circle class="c" cx="1.07" cy="1.07" r="1.07" transform="translate(9.628 38.512)"/><circle class="c" cx="1.07" cy="1.07" r="1.07" transform="translate(35.302 6.419)"/><circle class="c" cx="1.07" cy="1.07" r="1.07" transform="translate(35.302 38.512)"/><circle class="c" cx="1.07" cy="1.07" r="1.07" transform="translate(9.628 22.465)"/><circle class="c" cx="1.07" cy="1.07" r="1.07" transform="translate(9.628 54.558)"/><circle class="c" cx="1.07" cy="1.07" r="1.07" transform="translate(35.302 22.465)"/><circle class="c" cx="1.07" cy="1.07" r="1.07" transform="translate(35.302 54.558)"/><circle class="c" cx="1.07" cy="1.07" r="1.07" transform="translate(9.628 9.628)"/><circle class="c" cx="1.07" cy="1.07" r="1.07" transform="translate(9.628 41.721)"/><circle class="c" cx="1.07" cy="1.07" r="1.07" transform="translate(35.302 9.628)"/><circle class="c" cx="1.07" cy="1.07" r="1.07" transform="translate(35.302 41.721)"/><circle class="c" cx="1.07" cy="1.07" r="1.07" transform="translate(9.628 25.674)"/><circle class="c" cx="1.07" cy="1.07" r="1.07" transform="translate(9.628 57.767)"/><circle class="c" cx="1.07" cy="1.07" r="1.07" transform="translate(35.302 25.674)"/><circle class="c" cx="1.07" cy="1.07" r="1.07" transform="translate(35.302 57.767)"/><circle class="c" cx="1.07" cy="1.07" r="1.07" transform="translate(9.628 12.837)"/><circle class="c" cx="1.07" cy="1.07" r="1.07" transform="translate(9.628 44.93)"/><circle class="c" cx="1.07" cy="1.07" r="1.07" transform="translate(35.302 12.837)"/><circle class="c" cx="1.07" cy="1.07" r="1.07" transform="translate(35.302 44.93)"/><circle class="c" cx="1.07" cy="1.07" r="1.07" transform="translate(9.628 28.884)"/><circle class="c" cx="1.07" cy="1.07" r="1.07" transform="translate(9.628 60.977)"/><circle class="c" cx="1.07" cy="1.07" r="1.07" transform="translate(35.302 28.884)"/><circle class="c" cx="1.07" cy="1.07" r="1.07" transform="translate(35.302 60.977)"/><circle class="c" cx="1.07" cy="1.07" r="1.07" transform="translate(22.465)"/><circle class="c" cx="1.07" cy="1.07" r="1.07" transform="translate(22.465 32.093)"/><circle class="c" cx="1.07" cy="1.07" r="1.07" transform="translate(48.14)"/><circle class="c" cx="1.07" cy="1.07" r="1.07" transform="translate(48.14 32.093)"/><circle class="c" cx="1.07" cy="1.07" r="1.07" transform="translate(22.465 16.047)"/><circle class="c" cx="1.07" cy="1.07" r="1.07" transform="translate(22.465 48.14)"/><circle class="c" cx="1.07" cy="1.07" r="1.07" transform="translate(48.14 16.047)"/><circle class="c" cx="1.07" cy="1.07" r="1.07" transform="translate(48.14 48.14)"/><circle class="c" cx="1.07" cy="1.07" r="1.07" transform="translate(22.465 3.209)"/><circle class="c" cx="1.07" cy="1.07" r="1.07" transform="translate(22.465 35.302)"/><circle class="c" cx="1.07" cy="1.07" r="1.07" transform="translate(48.14 3.209)"/><circle class="c" cx="1.07" cy="1.07" r="1.07" transform="translate(48.14 35.302)"/><circle class="c" cx="1.07" cy="1.07" r="1.07" transform="translate(22.465 19.256)"/><circle class="c" cx="1.07" cy="1.07" r="1.07" transform="translate(22.465 51.349)"/><circle class="c" cx="1.07" cy="1.07" r="1.07" transform="translate(48.14 19.256)"/><circle class="c" cx="1.07" cy="1.07" r="1.07" transform="translate(48.14 51.349)"/><circle class="c" cx="1.07" cy="1.07" r="1.07" transform="translate(22.465 6.419)"/><circle class="c" cx="1.07" cy="1.07" r="1.07" transform="translate(22.465 38.512)"/><circle class="c" cx="1.07" cy="1.07" r="1.07" transform="translate(48.14 6.419)"/><circle class="c" cx="1.07" cy="1.07" r="1.07" transform="translate(48.14 38.512)"/><circle class="c" cx="1.07" cy="1.07" r="1.07" transform="translate(22.465 22.465)"/><circle class="c" cx="1.07" cy="1.07" r="1.07" transform="translate(22.465 54.558)"/><circle class="c" cx="1.07" cy="1.07" r="1.07" transform="translate(48.14 22.465)"/><circle class="c" cx="1.07" cy="1.07" r="1.07" transform="translate(48.14 54.558)"/><circle class="c" cx="1.07" cy="1.07" r="1.07" transform="translate(22.465 9.628)"/><circle class="c" cx="1.07" cy="1.07" r="1.07" transform="translate(22.465 41.721)"/><circle class="c" cx="1.07" cy="1.07" r="1.07" transform="translate(48.14 9.628)"/><circle class="c" cx="1.07" cy="1.07" r="1.07" transform="translate(48.14 41.721)"/><circle class="c" cx="1.07" cy="1.07" r="1.07" transform="translate(22.465 25.674)"/><circle class="c" cx="1.07" cy="1.07" r="1.07" transform="translate(22.465 57.767)"/><circle class="c" cx="1.07" cy="1.07" r="1.07" transform="translate(48.14 25.674)"/><circle class="c" cx="1.07" cy="1.07" r="1.07" transform="translate(48.14 57.767)"/><circle class="c" cx="1.07" cy="1.07" r="1.07" transform="translate(22.465 12.837)"/><circle class="c" cx="1.07" cy="1.07" r="1.07" transform="translate(22.465 44.93)"/><circle class="c" cx="1.07" cy="1.07" r="1.07" transform="translate(48.14 12.837)"/><circle class="c" cx="1.07" cy="1.07" r="1.07" transform="translate(48.14 44.93)"/><circle class="c" cx="1.07" cy="1.07" r="1.07" transform="translate(22.465 28.884)"/><circle class="c" cx="1.07" cy="1.07" r="1.07" transform="translate(22.465 60.977)"/><circle class="c" cx="1.07" cy="1.07" r="1.07" transform="translate(48.14 28.884)"/><circle class="c" cx="1.07" cy="1.07" r="1.07" transform="translate(48.14 60.977)"/></g></g><ellipse class="e" cx="67.5" cy="66" rx="67.5" ry="66" transform="translate(-31 16)"/></g></svg>